<svg width="79" height="40" viewBox="0 0 79 40" fill="none" xmlns="http://www.w3.org/2000/svg">
<g style="mix-blend-mode:difference">
<path d="M78.3 16H63.9C63.5 16 63.2 15.7 63.2 15.3V8.7C63.2 8.3 62.9 8 62.5 8H48.1C47.7 8 47.4 7.7 47.4 7.3V0.7C47.4 0.3 47.1 0 46.7 0H32.3C31.9 0 31.6 0.3 31.6 0.7V7.3C31.6 7.7 31.3 8 30.9 8H16.5C16.1 8 15.8 8.3 15.8 8.7V15.3C15.8 15.7 15.5 16 15.1 16H0.7C0.3 16 0 16.3 0 16.7V23.3C0 23.7 0.3 24 0.7 24H15.1C15.5 24 15.8 24.3 15.8 24.7V31.3C15.8 31.7 16.1 32 16.5 32H30.9C31.3 32 31.6 32.3 31.6 32.7V39.3C31.6 39.7 31.9 40 32.3 40H46.7C47.1 40 47.4 39.7 47.4 39.3V32.7C47.4 32.3 47.7 32 48.1 32H62.5C62.9 32 63.2 31.7 63.2 31.3V24.7C63.2 24.3 63.5 24 63.9 24H78.3C78.7 24 79 23.7 79 23.3V16.7C79 16.3 78.7 16 78.3 16ZM63.2 23.1C63.2 23.6 62.8 24 62.3 24H48.3C47.8 24 47.4 24.4 47.4 24.9V31.15C47.4 31.65 47 32.05 46.5 32.05H32.5C32 32.05 31.6 31.65 31.6 31.15V24.9C31.6 24.4 31.2 24 30.7 24H16.7C16.2 24 15.8 23.6 15.8 23.1V16.9C15.8 16.4 16.2 16 16.7 16H30.75C31.25 16 31.65 15.6 31.65 15.1V8.9C31.65 8.4 32.05 8 32.55 8H46.45C46.95 8 47.35 8.4 47.35 8.9V15.1C47.35 15.6 47.75 16 48.25 16H62.3C62.8 16 63.2 16.4 63.2 16.9V23.1Z" fill="#CECEFB"/>
</g>
</svg>
